HIERARCHY
ROOT root
{
	OFFSET	0	13.1	24.9
	CHANNELS 6  Xposition Yposition Zposition Xrotation Yrotation Zrotation
	JOINT spine_1
	{
		OFFSET	0	9.99999	0
		CHANNELS 3  Xrotation Yrotation Zrotation
		JOINT spine_2
		{
			OFFSET	0	112	-10
			CHANNELS 3  Xrotation Yrotation Zrotation
			JOINT spine_3
			{
				OFFSET	0	206.5	19.3
				CHANNELS 3  Xrotation Yrotation Zrotation
				JOINT spine_4
				{
					OFFSET	0	110.4	14.6
					CHANNELS 3  Xrotation Yrotation Zrotation
					JOINT neck_1
					{
						OFFSET	0	71.8	-50.3
						CHANNELS 3  Xrotation Yrotation Zrotation
						JOINT neck_2
						{
							OFFSET	0	86.2	-25.8
							CHANNELS 3  Xrotation Yrotation Zrotation
							JOINT head_ee
							{
								OFFSET	0	179.8	-8.7
								CHANNELS 3  Xrotation Yrotation Zrotation
								End Site
								{
									OFFSET	1	0	0
								}
							}
						}
					}
					JOINT left_clavicle
					{
						OFFSET	-43.2	22.4	-70.8
						CHANNELS 3  Xrotation Yrotation Zrotation
						JOINT left_shoulder
						{
							OFFSET	-93.9	-5.79999	48.7
							CHANNELS 3  Xrotation Yrotation Zrotation
							JOINT left_elbow
							{
								OFFSET	-291.4	-30.8	15.2
								CHANNELS 3  Xrotation Yrotation Zrotation
								JOINT left_lowarm_twist
								{
									OFFSET	-110.7	-3.89999	13.6
									CHANNELS 3  Xrotation Yrotation Zrotation
									JOINT left_hand
									{
										OFFSET	-110.7	-3.89999	13.6
										CHANNELS 3  Xrotation Yrotation Zrotation
										JOINT left_ee
										{
											OFFSET	-80.8	-5.10001	12.1
											CHANNELS 3  Xrotation Yrotation Zrotation
											End Site
											{
												OFFSET	1	0	0
											}
										}
									}
								}
							}
						}
					}
					JOINT right_clavicle
					{
						OFFSET	43.2	22.4	-70.8
						CHANNELS 3  Xrotation Yrotation Zrotation
						JOINT right_shoulder
						{
							OFFSET	93.9	-5.79999	48.7
							CHANNELS 3  Xrotation Yrotation Zrotation
							JOINT right_elbow
							{
								OFFSET	291.4	-30.8	15.2
								CHANNELS 3  Xrotation Yrotation Zrotation
								JOINT right_lowarm_twist
								{
									OFFSET	110.7	-3.89999	13.6
									CHANNELS 3  Xrotation Yrotation Zrotation
									JOINT right_hand
									{
										OFFSET	110.7	-3.89999	13.6
										CHANNELS 3  Xrotation Yrotation Zrotation
										JOINT right_ee
										{
											OFFSET	80.8	-5.10001	12.1
											CHANNELS 3  Xrotation Yrotation Zrotation
											End Site
											{
												OFFSET	1	0	0
											}
										}
									}
								}
							}
						}
					}
				}
			}
		}
	}
	JOINT left_hip
	{
		OFFSET	-82.8	-127.5	0.300001
		CHANNELS 3  Xrotation Yrotation Zrotation
		JOINT left_knee
		{
			OFFSET	-28.2	-396.7	2.2
			CHANNELS 3  Xrotation Yrotation Zrotation
			JOINT left_ankle
			{
				OFFSET	-11.7	-411.3	35.4
				CHANNELS 3  Xrotation Yrotation Zrotation
				JOINT left_toes
				{
					OFFSET	0	-60	-88.6
					CHANNELS 3  Xrotation Yrotation Zrotation
					JOINT left_foot_ee
					{
						OFFSET	-22.5	-16.5	-42.2
						CHANNELS 3  Xrotation Yrotation Zrotation
						End Site
						{
							OFFSET	1	0	0
						}
					}
				}
			}
		}
	}
	JOINT right_hip
	{
		OFFSET	82.8	-127.5	0.300001
		CHANNELS 3  Xrotation Yrotation Zrotation
		JOINT right_knee
		{
			OFFSET	28.2	-396.7	2.2
			CHANNELS 3  Xrotation Yrotation Zrotation
			JOINT right_ankle
			{
				OFFSET	11.7	-411.3	35.4
				CHANNELS 3  Xrotation Yrotation Zrotation
				JOINT right_toes
				{
					OFFSET	0	-60	-88.6
					CHANNELS 3  Xrotation Yrotation Zrotation
					JOINT right_foot_ee
					{
						OFFSET	22.5	-16.5	-42.2
						CHANNELS 3  Xrotation Yrotation Zrotation
						End Site
						{
							OFFSET	1	0	0
						}
					}
				}
			}
		}
	}
}
MOTION
Frames: 5
Frame Time: 0.02
3467.89744888 718.951 -1529.18487492 -3.83686086089 51.3630808921 -0.260817004853 0.919027 0.704729 2.35828 0.921951 0.553282 2.39831 0.946255 0.0777144 2.46004 0.938112 0.465142 2.41694 -9.89131 15.0938 -0.169289 -10.1686 28.5446 3.7066 -0.0 0.0 -0.0 -4.28726 23.4285 -3.18002 -15.0243 -13.5995 66.3232 2.47484 -50.7884 1.17497 -21.5295 -1.2334 2.44485 -1.4081 3.6625 -7.78306 -0.0 0.0 -0.0 14.2001 26.4418 -28.4167 -10.4738 33.2488 -64.3638 0.32129 9.04341 -0.0254086 16.9789 -0.282627 2.14256 0.893233 8.54044 -2.40544 0.0 0.0 0.0 12.5864 27.2865 -9.50566 -32.4676 -0.0583319 4.91624 38.7905 6.48522 -4.75291 -35.9482 0.0 0.0 -0.0 0.0 -0.0 -3.37209 20.7539 0.176604 -7.44913 -0.234265 -1.11841 40.6951 -7.26027 4.92165 -8.06787 0.0 0.0 0.0 0.0 0.0 
3456.71370203 718.346 -1528.29752672 -3.87295247631 54.4956190768 0.369876098182 1.01393 0.784515 2.0831 1.01611 0.650403 2.12877 1.04121 0.229009 2.21406 1.03483 0.575724 2.15016 -11.114 15.0382 0.405022 -11.5001 28.1898 4.57299 -0.0 0.0 -0.0 -4.30739 23.8183 -3.11502 -16.9367 -14.778 67.137 2.21064 -47.5923 0.974929 -22.1295 -1.28054 2.50556 -1.32197 2.87336 -7.56682 -0.0 0.0 -0.0 14.0945 26.4659 -28.1659 -8.2765 34.588 -65.0118 0.369078 10.3612 -0.0334628 17.2771 -0.281879 2.18065 0.543604 6.89612 -0.74336 0.0 0.0 0.0 17.6019 31.2709 -12.4351 -33.1944 -0.0914826 5.02283 39.7538 8.34006 -4.84462 -35.9059 0.0 0.0 -0.0 0.0 -0.0 -3.59653 19.8933 -0.413734 -8.59016 -0.257224 -1.292 40.8461 -8.84513 4.9421 -6.77534 0.0 0.0 0.0 0.0 0.0 
3439.44481223 719.821 -1521.10044301 -4.69787544297 58.7023705479 1.59115753578 1.32314 0.892967 1.89206 1.3248 0.770784 1.94502 1.35166 0.393688 2.05477 1.34648 0.713197 1.96686 -11.4518 15.1339 0.964532 -11.8635 28.0463 5.2256 -0.0 0.0 -0.0 -4.04736 24.1062 -2.69151 -19.7497 -14.1234 67.5194 1.83698 -42.2976 0.71068 -22.3579 -1.29865 2.52855 -1.23461 2.2584 -7.26026 -0.0 0.0 -0.0 14.032 26.4618 -28.0201 -5.52948 36.0248 -65.3086 0.414241 11.5965 -0.0420644 17.7962 -0.280106 2.24693 0.279779 6.43045 0.839456 0.0 0.0 0.0 19.8837 26.9009 -12.4341 -37.0949 -0.292367 5.58728 39.7242 11.4872 -4.86476 -36.1547 0.0 0.0 -0.0 0.0 -0.0 -4.84321 19.5486 -0.312912 -7.67132 -0.239007 -1.15218 41.1361 -8.87912 4.96704 -4.7987 0.0 0.0 0.0 0.0 0.0 
3422.85291285 718.941 -1511.17085335 -6.41670537119 63.304822437 3.31492607271 1.5261 0.891237 1.74919 1.52746 0.778143 1.80234 1.55246 0.434291 1.91447 1.54809 0.731146 1.82191 -11.7583 14.912 0.517148 -12.1968 27.9438 4.8144 -0.0 0.0 -0.0 -3.48552 23.2624 -2.10662 -21.7365 -12.8458 68.5393 1.37939 -34.3433 0.426262 -22.5128 -1.31098 2.54409 -1.10569 2.07525 -6.48043 -0.0 0.0 -0.0 14.0943 26.5044 -28.1605 -2.62303 37.1595 -65.9427 0.448176 12.5176 -0.0491531 18.2915 -0.277853 2.31015 -0.226602 5.18155 3.72564 0.0 0.0 0.0 22.7162 21.6359 -12.9469 -39.5077 -0.435742 5.92925 38.5455 11.918 -4.76262 -37.3919 0.0 0.0 -0.0 0.0 -0.0 -5.63155 19.2015 0.851496 -5.74082 -0.193436 -0.859445 41.0433 -9.84687 4.96574 -3.43362 0.0 0.0 0.0 0.0 0.0 
3417.87781612 718.321 -1493.49217379 -9.32836842668 67.9449765283 6.36081282179 1.68662 0.628533 1.6383 1.68796 0.523025 1.67496 1.70353 0.211331 1.74193 1.69962 0.483745 1.68672 -13.1274 14.5799 0.674841 -13.6669 27.342 5.21972 -0.0 0.0 -0.0 -2.96705 22.9167 -1.45772 -23.0057 -11.8671 70.6152 1.09292 -28.4303 0.276866 -22.5197 -1.31154 2.54478 -0.999983 2.24295 -5.70045 -0.0 0.0 -0.0 13.8419 26.6626 -27.5504 0.849263 38.496 -66.429 0.494725 13.7704 -0.0597391 18.6286 -0.276007 2.35316 -0.526106 5.10177 5.71707 0.0 0.0 0.0 25.0773 17.943 -12.1349 -39.6074 -0.441982 5.94326 37.0782 11.5609 -4.62292 -38.567 0.0 0.0 -0.0 0.0 -0.0 -6.08036 19.3575 1.10168 -3.98725 -0.143509 -0.59497 39.8831 -10.4815 4.86993 -3.02661 0.0 0.0 0.0 0.0 0.0 
